<?xml version="1.0" encoding="utf-8"?>
<!-- Generator: Adobe Illustrator 24.1.2, SVG Export Plug-In . SVG Version: 6.00 Build 0)  -->
<svg version="1.1" id="Warstwa_3" xmlns="http://www.w3.org/2000/svg" xmlns:xlink="http://www.w3.org/1999/xlink" x="0px" y="0px"
	 viewBox="0 0 430 430" style="enable-background:new 0 0 430 430;" xml:space="preserve">
<style type="text/css">
	.st0{fill:#121331;}
	.st1{fill:#08A88A;}
	.st2{fill:none;stroke:#08A88A;stroke-width:12.95;stroke-linecap:round;stroke-linejoin:round;stroke-miterlimit:14.8;}
	.st3{fill:none;}
</style>
<g>
	<path class="st0" d="M152.6,389.74c-66.53,0-120.66-54.13-120.66-120.66c0-45.62,25.29-86.83,65.99-107.57
		c17.05-8.69,35.44-13.09,54.67-13.09c23.47,0,46.24,6.76,65.82,19.55c2.9,1.89,3.71,5.77,1.82,8.67c-1.89,2.89-5.77,3.71-8.67,1.82
		c-17.55-11.46-37.94-17.51-58.98-17.51c-17.24,0-33.72,3.95-48.99,11.73c-36.49,18.59-59.15,55.53-59.15,96.41
		c0,59.63,48.51,108.14,108.14,108.14c21.04,0,41.43-6.06,58.98-17.51c30.78-20.08,49.16-53.96,49.16-90.63
		c0-1.89-0.05-3.85-0.16-5.83c-0.19-3.45,2.46-6.4,5.92-6.59c3.46-0.18,6.4,2.46,6.59,5.92c0.12,2.21,0.18,4.39,0.18,6.51
		c0,40.91-20.5,78.71-54.84,101.11C198.84,382.98,176.07,389.74,152.6,389.74z"/>
	<path class="st0" d="M277.4,389.74c-23.47,0-46.24-6.76-65.82-19.55c-34.34-22.4-54.84-60.2-54.84-101.11
		c0-2.11,0.06-4.3,0.18-6.51c0.19-3.45,3.13-6.09,6.59-5.92c3.45,0.19,6.1,3.14,5.92,6.59c-0.11,1.98-0.16,3.94-0.16,5.83
		c0,36.66,18.38,70.54,49.16,90.63c17.55,11.46,37.94,17.51,58.98,17.51c59.63,0,108.14-48.51,108.14-108.14
		c0-40.88-22.67-77.82-59.15-96.41c-15.27-7.78-31.75-11.73-48.99-11.73c-21.04,0-41.43,6.06-58.98,17.51
		c-2.9,1.89-6.78,1.08-8.67-1.82c-1.89-2.9-1.08-6.77,1.82-8.67c19.59-12.79,42.35-19.55,65.82-19.55c19.23,0,37.63,4.4,54.67,13.09
		c40.7,20.73,65.99,61.95,65.99,107.57C398.06,335.61,343.93,389.74,277.4,389.74z"/>
	<path class="st0" d="M266.83,269.17c-2.28,0-4.48-1.25-5.58-3.42c-1.57-3.08-0.34-6.85,2.74-8.42
		c34.35-17.5,56.95-52.2,58.99-90.57c0.11-1.99,0.16-3.95,0.16-5.84c0-59.63-48.51-108.14-108.14-108.14
		s-108.14,48.51-108.14,108.14c0,1.89,0.05,3.85,0.16,5.83c2.03,38.38,24.64,73.08,58.99,90.58c3.08,1.57,4.31,5.34,2.74,8.42
		c-1.57,3.08-5.34,4.31-8.42,2.74c-38.32-19.52-63.54-58.25-65.81-101.07c-0.12-2.2-0.18-4.39-0.18-6.5
		c0-66.53,54.13-120.66,120.66-120.66s120.66,54.13,120.66,120.66c0,2.11-0.06,4.3-0.18,6.51c-2.27,42.82-27.49,81.54-65.81,101.06
		C268.76,268.95,267.79,269.17,266.83,269.17z"/>
	<path class="st1" d="M215.56,281.7c-31.57,0-54.09-12.55-55.5-13.35c-2.01-1.15-3.22-3.31-3.15-5.62
		c1.8-60.74,52.67-93.5,54.84-94.87c2.03-1.28,4.61-1.29,6.65-0.02c51.88,32.32,54.77,92.21,54.86,94.75
		c0.09,2.43-1.23,4.7-3.39,5.81C250.47,278.37,231.82,281.7,215.56,281.7z M169.63,259.13c11.26,5.15,49.2,19.38,90.75-0.02
		c-1.54-12.83-9.2-53.81-45.15-78.39C204.85,188.47,172.74,215.81,169.63,259.13z M163.17,262.91L163.17,262.91L163.17,262.91z"/>
</g>
</svg>
